<?xml version="1.0" encoding="utf-8"?>
<!-- Generator: Adobe Illustrator 25.4.1, SVG Export Plug-In . SVG Version: 6.00 Build 0)  -->
<svg version="1.1" id="Capa_1" xmlns="http://www.w3.org/2000/svg" xmlns:xlink="http://www.w3.org/1999/xlink" x="0px" y="0px"
	 viewBox="0 0 500 500" style="enable-background:new 0 0 500 500;" xml:space="preserve">
<style type="text/css">
	.st0{fill:#B7ED3B;}
	.st1{fill:#1C3174;}
</style>
<g>
	<g>
		<g>
			<path class="st0" d="M446.3,450.3H27.9v-27.9c0-13.2,10.7-23.8,23.8-23.8h418.4v27.9C470.1,439.7,459.4,450.3,446.3,450.3z"/>
		</g>
	</g>
	<g>
		<g>
			<path class="st1" d="M55.9,411.1c0.7,0,1.3,0,1.8,0.1c0.5,0,1,0.1,1.5,0.2s0.9,0.2,1.4,0.3c0.5,0.1,0.9,0.3,1.4,0.4v5.9
				c-0.7-0.4-1.5-0.7-2.4-1s-1.9-0.4-3.1-0.4c-1.3,0-2.4,0.2-3.3,0.6c-0.9,0.4-1.7,0.9-2.3,1.6s-1,1.4-1.3,2.3s-0.4,1.7-0.4,2.6
				s0.1,1.8,0.4,2.6c0.3,0.9,0.7,1.6,1.3,2.3c0.6,0.7,1.3,1.2,2.2,1.6s2,0.6,3.3,0.6c1.2,0,2.2-0.1,3.1-0.2c0.8-0.1,1.6-0.4,2.5-0.7
				v5.7c-1,0.3-2,0.5-3,0.6s-2,0.2-2.9,0.2c-1.8,0-3.5-0.2-5.1-0.7s-3.1-1.2-4.3-2.3c-1.2-1-2.2-2.3-3-3.9c-0.7-1.6-1.1-3.5-1.1-5.7
				s0.4-4.1,1.1-5.7c0.7-1.6,1.7-2.9,2.9-3.9s2.6-1.8,4.2-2.3C52.4,411.4,54.1,411.1,55.9,411.1z"/>
		</g>
		<g>
			<path class="st1" d="M69.8,423.8c0-1.9,0.3-3.7,1-5.3c0.6-1.6,1.5-2.9,2.7-4s2.5-2,4.1-2.5c1.6-0.6,3.4-0.9,5.3-0.9
				s3.7,0.3,5.3,0.9c1.6,0.6,3,1.4,4.1,2.5c1.2,1.1,2.1,2.4,2.7,4s1,3.3,1,5.3c0,1.9-0.3,3.7-1,5.3c-0.6,1.6-1.5,2.9-2.7,4
				s-2.5,2-4.1,2.6s-3.4,0.9-5.3,0.9s-3.7-0.3-5.3-0.9c-1.6-0.6-3-1.5-4.1-2.6c-1.2-1.1-2.1-2.4-2.7-4
				C70.2,427.5,69.8,425.8,69.8,423.8z M76.6,423.8c0,1.1,0.2,2,0.5,2.9c0.3,0.8,0.8,1.6,1.3,2.2c0.6,0.6,1.2,1,2,1.4
				c0.8,0.3,1.6,0.5,2.5,0.5s1.7-0.2,2.5-0.5s1.4-0.8,2-1.4s1-1.3,1.3-2.2c0.3-0.8,0.5-1.8,0.5-2.9s-0.2-2-0.5-2.9
				c-0.3-0.8-0.8-1.6-1.3-2.1c-0.6-0.6-1.2-1-2-1.4c-0.8-0.3-1.6-0.5-2.5-0.5s-1.7,0.2-2.5,0.5s-1.4,0.8-2,1.4s-1,1.3-1.3,2.1
				C76.8,421.8,76.6,422.7,76.6,423.8z"/>
		</g>
		<g>
			<path class="st1" d="M126.2,436.2h-6.4v-14.1c0-0.6-0.1-1.3-0.2-1.9s-0.3-1.2-0.7-1.7c-0.3-0.5-0.8-0.9-1.4-1.2
				c-0.6-0.3-1.3-0.5-2.3-0.5c-0.9,0-1.7,0.2-2.3,0.5c-0.6,0.3-1,0.7-1.4,1.2c-0.3,0.5-0.5,1.1-0.6,1.7s-0.2,1.3-0.2,1.9v14.1h-6.4
				v-13.7c0-3.7,0.9-6.5,2.8-8.5c1.9-1.9,4.6-2.9,8.1-2.9s6.2,1,8,2.9c1.9,1.9,2.8,4.8,2.8,8.5v13.7H126.2z"/>
		</g>
		<g>
			<path class="st1" d="M146,436.2h-6.3v-19.6h-6.3v-5.3h19v5.3H146V436.2z"/>
		</g>
		<g>
			<path class="st1" d="M166.9,436.2h-6.5v-24.9h6.5V436.2z"/>
		</g>
		<g>
			<path class="st1" d="M187.8,422h10.1v13.6c-1.4,0.3-2.7,0.5-4.2,0.7c-1.4,0.2-2.8,0.2-4,0.2c-1.9,0-3.7-0.2-5.4-0.7
				s-3.2-1.3-4.4-2.3c-1.3-1-2.3-2.4-3-4s-1.1-3.5-1.1-5.8c0-2.2,0.4-4.1,1.1-5.7c0.7-1.6,1.7-2.9,3-3.9s2.8-1.8,4.5-2.3
				s3.6-0.7,5.7-0.7c2,0,3.7,0.2,4.9,0.6c1.3,0.4,2.3,0.7,3,1v5.8c-0.5-0.2-1-0.5-1.5-0.7s-1.1-0.4-1.7-0.6c-0.6-0.2-1.3-0.3-2-0.4
				s-1.5-0.1-2.5-0.1c-2.6,0-4.5,0.6-5.7,1.9c-1.2,1.2-1.8,3-1.8,5.3s0.6,4.1,1.8,5.2s3.1,1.7,5.6,1.7c0.2,0,0.4,0,0.7,0
				s0.5,0,0.9,0v-3.6H188V422H187.8z"/>
		</g>
		<g>
			<path class="st1" d="M206.7,423.8c0-1.9,0.3-3.7,1-5.3c0.6-1.6,1.5-2.9,2.7-4s2.5-2,4.1-2.5c1.6-0.6,3.4-0.9,5.3-0.9
				s3.7,0.3,5.3,0.9s3,1.4,4.1,2.5c1.2,1.1,2.1,2.4,2.7,4c0.6,1.6,1,3.3,1,5.3c0,1.9-0.3,3.7-1,5.3c-0.6,1.6-1.5,2.9-2.7,4
				s-2.5,2-4.1,2.6s-3.4,0.9-5.3,0.9s-3.7-0.3-5.3-0.9s-3-1.5-4.1-2.6c-1.2-1.1-2.1-2.4-2.7-4C207,427.5,206.7,425.8,206.7,423.8z
				 M213.5,423.8c0,1.1,0.2,2,0.5,2.9s0.8,1.6,1.3,2.2c0.6,0.6,1.2,1,2,1.4c0.8,0.3,1.6,0.5,2.5,0.5s1.7-0.2,2.5-0.5s1.4-0.8,2-1.4
				s1-1.3,1.3-2.2s0.5-1.8,0.5-2.9s-0.2-2-0.5-2.9c-0.3-0.8-0.8-1.6-1.3-2.1c-0.6-0.6-1.2-1-2-1.4c-0.8-0.3-1.6-0.5-2.5-0.5
				s-1.7,0.2-2.5,0.5s-1.4,0.8-2,1.4s-1,1.3-1.3,2.1C213.6,421.8,213.5,422.7,213.5,423.8z"/>
		</g>
		<g>
			<path class="st1" d="M260.7,426.3v4.6h11.8v5.3h-18.2v-24.9h17.4v5.3h-11v4.4h8.6v5.3L260.7,426.3L260.7,426.3z"/>
		</g>
		<g>
			<path class="st1" d="M298.7,428.7c0,1.7-0.3,3.1-0.9,4.1s-1.4,1.8-2.4,2.4c-1,0.5-2,0.9-3.2,1.1c-1.1,0.2-2.3,0.2-3.3,0.2
				c-0.6,0-1.2,0-2-0.1c-0.7,0-1.5-0.1-2.3-0.2s-1.6-0.2-2.4-0.4c-0.8-0.2-1.6-0.4-2.3-0.6v-5.4c0.4,0.1,1,0.3,1.7,0.4
				s1.4,0.3,2.2,0.4c0.8,0.1,1.5,0.2,2.3,0.3c0.8,0.1,1.6,0.1,2.3,0.1c1.1,0,2.1-0.1,2.8-0.4c0.8-0.3,1.1-0.8,1.1-1.7
				c0-0.5-0.2-0.9-0.5-1.2c-0.3-0.3-0.8-0.6-1.3-0.7c-0.5-0.2-1.2-0.3-1.9-0.5c-0.7-0.1-1.5-0.3-2.2-0.4c-0.8-0.2-1.5-0.4-2.2-0.7
				c-0.7-0.3-1.4-0.7-2-1.2s-1.1-1.2-1.4-2.1c-0.4-0.9-0.6-1.9-0.6-3.3c0-1.7,0.3-3.1,0.8-4.1s1.3-1.8,2.2-2.3s1.9-0.9,3-1.1
				s2.2-0.3,3.3-0.3c1.7,0,3.2,0.1,4.4,0.2c1.2,0.1,2.4,0.3,3.5,0.6v5.4c-0.5-0.2-1.1-0.3-1.7-0.4s-1.2-0.2-1.7-0.2
				c-0.6-0.1-1.1-0.1-1.6-0.1s-0.9,0-1.2,0c-0.3,0-0.8,0-1.3,0s-1,0.1-1.5,0.2s-0.9,0.4-1.2,0.7c-0.3,0.3-0.5,0.7-0.5,1.3
				c0,0.5,0.1,0.9,0.4,1.1c0.3,0.3,0.7,0.5,1.2,0.7s1,0.3,1.7,0.4c0.6,0.1,1.3,0.2,2,0.4c0.8,0.2,1.6,0.4,2.5,0.7
				c0.8,0.3,1.6,0.7,2.2,1.2c0.7,0.5,1.2,1.2,1.6,2.1C298.5,426.2,298.7,427.3,298.7,428.7z"/>
		</g>
		<g>
			<path class="st1" d="M350.4,436.2H344V421c0-1.2-0.2-2.2-0.6-2.9c-0.4-0.7-1.2-1.1-2.4-1.1c-1.2,0-2,0.3-2.4,1s-0.6,1.7-0.6,2.9
				v15.2h-6.3V421c0-1.4-0.2-2.4-0.6-3s-1.2-0.9-2.4-0.9c-0.6,0-1.2,0.1-1.5,0.2c-0.4,0.2-0.7,0.4-0.9,0.7c-0.2,0.3-0.4,0.7-0.4,1.2
				c-0.1,0.5-0.1,1.1-0.1,1.8v15.2h-6.4v-15.4c0-1.8,0.2-3.4,0.6-4.6s0.9-2.2,1.7-3c0.7-0.8,1.6-1.3,2.6-1.6c1-0.3,2.1-0.5,3.4-0.5
				c1.5,0,2.9,0.2,4.1,0.6s2.3,1.2,3.1,2.3c0.8-1.2,1.8-1.9,3.1-2.3c1.3-0.4,2.6-0.6,4.1-0.6c1.3,0,2.4,0.2,3.5,0.6s1.9,1,2.6,1.7
				c0.7,0.8,1.3,1.8,1.7,3c0.4,1.2,0.6,2.7,0.6,4.4v15.4L350.4,436.2L350.4,436.2z"/>
		</g>
		<g>
			<path class="st1" d="M365.9,426.3v4.6h11.8v5.3h-18.2v-24.9h17.4v5.3h-11v4.4h8.6v5.3L365.9,426.3L365.9,426.3z"/>
		</g>
		<g>
			<path class="st1" d="M386,411.3h6.4v24.8c0,1.4-0.2,2.6-0.5,3.5s-0.8,1.6-1.4,2.1s-1.3,0.8-2.2,1c-0.9,0.2-1.9,0.3-3.1,0.3
				c-0.6,0-1.2,0-1.8-0.1c-0.6-0.1-1.1-0.1-1.6-0.3V438c0.4,0,0.7,0.1,0.9,0.1c0.2,0,0.5,0,0.9,0s0.8,0,1.1-0.1
				c0.3-0.1,0.5-0.2,0.7-0.4c0.2-0.2,0.3-0.5,0.4-0.9s0.1-0.9,0.1-1.5v-23.9L386,411.3L386,411.3z"/>
		</g>
		<g>
			<path class="st1" d="M401.3,423.8c0-1.9,0.3-3.7,1-5.3c0.6-1.6,1.5-2.9,2.7-4s2.5-2,4.1-2.5c1.6-0.6,3.4-0.9,5.3-0.9
				s3.7,0.3,5.3,0.9c1.6,0.6,3,1.4,4.1,2.5c1.2,1.1,2.1,2.4,2.7,4s1,3.3,1,5.3c0,1.9-0.3,3.7-1,5.3c-0.6,1.6-1.5,2.9-2.7,4
				s-2.5,2-4.1,2.6s-3.4,0.9-5.3,0.9s-3.7-0.3-5.3-0.9c-1.6-0.6-3-1.5-4.1-2.6c-1.2-1.1-2.1-2.4-2.7-4S401.3,425.8,401.3,423.8z
				 M408,423.8c0,1.1,0.2,2,0.5,2.9c0.3,0.8,0.8,1.6,1.3,2.2c0.6,0.6,1.2,1,2,1.4c0.8,0.3,1.6,0.5,2.5,0.5s1.7-0.2,2.5-0.5
				s1.4-0.8,2-1.4s1-1.3,1.3-2.2c0.3-0.8,0.5-1.8,0.5-2.9s-0.2-2-0.5-2.9c-0.3-0.8-0.8-1.6-1.3-2.1c-0.6-0.6-1.2-1-2-1.4
				c-0.8-0.3-1.6-0.5-2.5-0.5s-1.7,0.2-2.5,0.5s-1.4,0.8-2,1.4s-1,1.3-1.3,2.1C408.2,421.8,408,422.7,408,423.8z"/>
		</g>
		<g>
			<path class="st1" d="M436.2,411.3h8.9c1,0,2,0.1,3.1,0.4s2.1,0.7,3.1,1.3c0.9,0.6,1.7,1.5,2.4,2.5c0.6,1.1,0.9,2.4,0.9,4
				c0,1-0.1,1.9-0.3,2.6c-0.2,0.8-0.5,1.5-0.9,2c-0.4,0.6-0.9,1.1-1.4,1.5s-1.1,0.8-1.7,1.1c0.4,0.5,0.8,1,1.2,1.6
				c0.3,0.5,0.7,1,1,1.4s0.7,0.8,1,1c0.4,0.3,0.8,0.4,1.3,0.4s0.9,0,1.4-0.1v5.1c-0.3,0.1-0.6,0.2-1,0.3c-0.4,0.1-0.8,0.1-1.1,0.1
				c-1.4,0-2.5-0.2-3.4-0.6s-1.7-0.9-2.3-1.5s-1.1-1.3-1.5-2s-0.7-1.4-1.1-2c-0.3-0.6-0.6-1.2-1-1.6c-0.3-0.4-0.7-0.7-1.2-0.8h-1
				v8.2h-6.4V411.3z M442.6,422.3h2.5c1,0,1.7-0.2,2.1-0.7s0.7-1.2,0.7-2s-0.2-1.5-0.6-2s-1.1-0.7-2.1-0.7h-2.5v5.4L442.6,422.3
				L442.6,422.3z"/>
		</g>
	</g>
	<g>
		<g>
			<g>
				<path class="st1" d="M127,385.9h-20.2v-48.1c0-3.8-0.6-6.9-1.8-9.2c-1.2-2.3-3.7-3.4-7.6-3.4c-3.8,0-6.4,1.1-7.7,3.3
					c-1.3,2.2-1.9,5.3-1.9,9.2v48.1H67.7v-48.1c0-4.5-0.6-7.7-1.8-9.7c-1.2-1.9-3.7-2.9-7.5-2.9c-2,0-3.7,0.2-4.9,0.7
					s-2.2,1.2-2.9,2.3c-0.7,1-1.1,2.3-1.4,3.9c-0.2,1.6-0.3,3.5-0.3,5.6v48.1H28.7V337c0-5.8,0.6-10.7,1.9-14.6
					c1.2-3.9,3-7.1,5.3-9.5c2.3-2.4,5.1-4.1,8.3-5.1s6.8-1.5,10.7-1.5c4.7,0,9.1,0.6,13,1.8c3.9,1.2,7.2,3.7,9.8,7.5
					c2.6-3.7,5.8-6.2,9.8-7.4c4-1.2,8.3-1.9,13-1.9c4.1,0,7.7,0.6,11,1.8c3.3,1.2,6,3.1,8.3,5.5c2.3,2.5,4,5.7,5.3,9.5
					c1.2,3.9,1.9,8.5,1.9,13.8L127,385.9L127,385.9z"/>
			</g>
		</g>
		<g>
			<g>
				<path class="st1" d="M169.2,289.1h20.3l-17.2,13.2h-14.8L169.2,289.1z M163.6,323.6h30.7v-16.8h-45.7c-5.3,0-9.6,4.3-9.6,9.6
					v21.1V355v21.1c0,5.3,4.3,9.6,9.6,9.6h45.7v-16.8h-30.7c-2.4,0-4.4-2-4.4-4.4v-9.6h27.3v-0.5V338v-0.5h-27.3v-9.6
					C159.3,325.5,161.2,323.6,163.6,323.6z"/>
			</g>
		</g>
		<g>
			<g>
				<path class="st1" d="M206.5,306.8h28.4c3.1,0,6.4,0.4,9.9,1.2c3.5,0.8,6.8,2.2,9.8,4.2c3,2,5.5,4.7,7.5,8.1s3,7.6,3,12.8
					c0,3.2-0.4,6-1.1,8.4s-1.7,4.6-2.9,6.5c-1.2,1.9-2.7,3.5-4.4,4.9c-1.7,1.4-3.5,2.5-5.4,3.4c1.4,1.7,2.6,3.3,3.7,5
					s2.1,3.1,3.2,4.5c1,1.3,2.1,2.4,3.3,3.2c1.2,0.8,2.5,1.2,4.1,1.2c1.4,0,2.9-0.1,4.3-0.5v16.2c-0.8,0.4-1.9,0.7-3.1,0.8
					c-1.2,0.2-2.4,0.3-3.6,0.3c-4.4,0-8-0.6-10.9-1.9s-5.3-2.9-7.3-4.8s-3.6-4-4.9-6.3c-1.2-2.3-2.4-4.4-3.4-6.4s-2-3.8-3.1-5.2
					c-1-1.4-2.3-2.3-3.8-2.6h-3.1v26.1h-20.3v-79.1L206.5,306.8L206.5,306.8z M226.9,341.8h8c3.1,0,5.3-0.8,6.7-2.4s2.1-3.7,2.1-6.3
					c0-2.6-0.7-4.6-2-6.2c-1.4-1.6-3.6-2.4-6.8-2.4h-8V341.8z"/>
			</g>
		</g>
		<g>
			<g>
				<path class="st1" d="M299.2,385.9h-20.6v-79.1h20.6V385.9z"/>
			</g>
		</g>
		<g>
			<g>
				<path class="st1" d="M312.3,306.8h31c6.3,0,12.2,0.8,17.7,2.5c5.6,1.7,10.5,4.2,14.6,7.5c4.2,3.3,7.5,7.5,9.9,12.5
					s3.6,10.9,3.6,17.5c0,6.5-1.2,12.1-3.6,17s-5.7,8.9-9.8,12.2c-4.1,3.3-8.9,5.7-14.4,7.3c-5.4,1.6-11.1,2.4-17.1,2.4h-32
					L312.3,306.8L312.3,306.8z M332.6,369.2h10.5c7.6,0,13.4-2,17.5-5.9c4-3.9,6-9.4,6-16.4c0-3.5-0.5-6.6-1.5-9.5s-2.5-5.3-4.5-7.4
					s-4.5-3.7-7.4-4.8c-2.9-1.1-6.3-1.7-10.1-1.7h-10.5V369.2z"/>
			</g>
		</g>
		<g>
			<g>
				<path class="st1" d="M469.3,385.9H449v-18.3h-29.7v18.3h-20.2v-44.6c0-11.7,3-20.4,9-26.3c6-5.8,14.7-8.8,26-8.8
					c11.4,0,20.1,2.9,26.2,8.8c6.1,5.8,9.1,14.6,9.1,26.3v44.6H469.3z M419.3,349.5H449v-8.4c0-3.6-0.5-6.5-1.4-8.8
					c-0.9-2.2-2.1-3.9-3.6-5.1s-3.1-2-4.9-2.4s-3.4-0.6-5-0.6c-1.7,0-3.4,0.2-5.1,0.6s-3.3,1.2-4.7,2.4c-1.4,1.2-2.6,2.9-3.6,5.1
					c-0.9,2.2-1.4,5.1-1.4,8.8V349.5z"/>
			</g>
		</g>
	</g>
	<g>
		<g>
			<g>
				<path class="st0" d="M203.7,117.7"/>
			</g>
			<g>
				<path class="st0" d="M203.7,117.7"/>
			</g>
			<g>
				<path class="st0" d="M216.6,117.8c0-7.2-5.9-13.1-13.1-13.1l0,0c-7.2,0-13.1,5.9-13.1,13.1v102.8c0,1.3,0.6,2.5,1.7,3.2
					l18.5,12.9c2.6,1.8,6.1,0,6.1-3.2L216.6,117.8L216.6,117.8z"/>
			</g>
			<g>
				<path class="st0" d="M307.5,117.8c0-7.4-6.1-13.4-13.6-13.1c-7.1,0.3-12.6,6.3-12.6,13.4v115.5c0,3.1,3.5,5,6.1,3.2l18.5-12.9
					c1-0.7,1.7-1.9,1.7-3.2V117.8H307.5z"/>
			</g>
			<g>
				<path class="st0" d="M172.5,132.9h-28.3v43.6c0,8.6,4.2,16.6,11.2,21.5l11,7.7c2.6,1.8,6.1,0,6.1-3.2V132.9z"/>
			</g>
			<g>
				<path class="st0" d="M353.8,132.9h-28.3v69.7c0,3.1,3.5,5,6.1,3.2l11-7.7c7-4.9,11.2-13,11.2-21.5L353.8,132.9L353.8,132.9z"/>
			</g>
			<g>
				<path class="st0" d="M261.5,254.9c1-0.7,1.7-1.9,1.7-3.2v-71.4v-62.9c0-17.4,14.2-32,31.6-31.7c16.9,0.2,30.6,14,30.7,30.8h28.3
					c-0.2-32.7-26.8-59.2-59.5-59.2c-18.1,0-34.4,8.2-45.3,21c-10.9-12.9-27.2-21-45.3-21c-32.7,0-59.3,26.5-59.5,59.2h28.3
					c0.2-16.9,13.9-30.6,30.7-30.8c17.4-0.2,31.6,14.3,31.6,31.7v62.9v71.4c0,1.3,0.6,2.5,1.7,3.2l10.3,7.2c1.3,0.9,3.1,0.9,4.5,0
					L261.5,254.9z"/>
			</g>
		</g>
		<g>
			<path class="st1" d="M247.1,53c-0.2,0-0.5,0-0.7,0c-2.1,0-4.2-0.3-6.1-1c-3.4-1.3-5.9-3.6-7.4-6.9c-0.7-1.6-1.1-3.3-1.3-5.1
				c0-0.4-0.1-0.7-0.1-1.1v-1.5c0-0.1,0-0.1,0-0.2c0-0.4,0.1-0.9,0.1-1.3c0-0.1,0-0.2,0.2-0.2c0.3,0,0.6-0.1,0.9-0.1
				c0.2,0,0.4,0,0.7-0.1h1.5c0.2,0,0.5,0,0.7,0.1c2.2,0.2,4.3,0.7,6.2,1.7c2.2,1.1,3.9,2.8,5.1,4.9c0.1,0.2,0.2,0.3,0.3,0.5v-9
				c-0.5-0.6-1-1.3-1.3-2.1c-0.9-2-1-4-0.2-6c0.4-1,0.9-1.9,1.6-2.7c0.1-0.2,0.3-0.3,0.4-0.5l0.6-0.6c0,0,0.1,0,0.1-0.1
				c0.2-0.2,0.4-0.3,0.6-0.5h0.1c0.1,0.1,0.3,0.2,0.4,0.3c0.1,0.1,0.2,0.2,0.3,0.2l0.6,0.6c0.1,0.1,0.2,0.2,0.3,0.3
				c0.8,1,1.5,2.1,1.9,3.3c0.4,1.4,0.5,2.8,0.1,4.2c-0.3,1.1-0.8,2.2-1.5,3.1c-0.1,0.1-0.2,0.2-0.3,0.3V38c1.2-2,2.8-3.5,5-4.5
				c1.4-0.6,2.9-1,4.4-1.1c0.3,0,0.6-0.1,1-0.1h1.3c0.1,0,0.1,0,0.2,0c0.4,0,0.8,0.1,1.2,0.1c0.1,0,0.1,0,0.1,0.1
				c0,0.2,0.1,0.5,0.1,0.7s0,0.4,0.1,0.6v1.3c0,0.2,0,0.4-0.1,0.6c-0.1,1.9-0.6,3.7-1.5,5.4c-1,1.9-2.4,3.3-4.2,4.4
				c-1.5,0.9-3.1,1.4-4.8,1.6c-0.9,0.1-1.9,0.2-2.8,0.2V63c11.2-9.5,25.2-15.2,40-15.9l-4.5-8.9H271V16.7h-14V8h-16v8.7h-14v21.6
				h-15.4l-4.5,8.9c14.8,0.8,28.8,6.4,40,15.9V53z"/>
		</g>
	</g>
	<g>
		<path class="st1" d="M43.4,487.2h-7.7l-1.2,3.5h-6.3l7.9-21.7h7l7.9,21.7h-6.4L43.4,487.2z M41.9,482.6l-2.3-7l-2.3,7H41.9z"/>
		<path class="st1" d="M73.4,469.1l-7.6,14.8v6.9h-6.1v-6.9L52,469.1h6.9l3.8,8.4l3.8-8.4H73.4z"/>
		<path class="st1" d="M81.9,469.1v12.6c0,1.2,0.3,2.1,0.8,2.7s1.4,1,2.5,1s1.9-0.3,2.5-1c0.6-0.6,0.8-1.5,0.8-2.7v-12.6h6v12.6
			c0,2-0.4,3.7-1.3,5.1c-0.8,1.4-2,2.5-3.4,3.2s-3.1,1.1-4.8,1.1s-3.3-0.4-4.7-1.1c-1.4-0.7-2.5-1.8-3.3-3.2
			c-0.8-1.4-1.2-3.1-1.2-5.1v-12.6H81.9z"/>
		<path class="st1" d="M118.8,490.8h-6l-8-12.1v12.1h-6v-21.7h6l8,12.3v-12.3h6V490.8z"/>
		<path class="st1" d="M139.4,469.1v4.8h-5.8v16.9h-6v-16.9h-5.7v-4.8H139.4z"/>
		<path class="st1" d="M156.1,487.2h-7.7l-1.2,3.5h-6.3l7.9-21.7h7l7.9,21.7h-6.4L156.1,487.2z M154.6,482.6l-2.3-7l-2.3,7H154.6z"
			/>
		<path class="st1" d="M191.8,469.1v21.7h-6v-12l-4.1,12h-5.1l-4.1-12.1v12.1h-6v-21.7h7.3l5.5,14.1l5.3-14.1H191.8z"/>
		<path class="st1" d="M202,469.1v21.7h-6v-21.7H202z"/>
		<path class="st1" d="M212.3,473.9v3.5h6.9v4.6h-6.9v3.9h7.9v4.8h-13.9V469h13.9v4.8h-7.9V473.9z"/>
		<path class="st1" d="M244,490.8h-6l-8-12.1v12.1h-6v-21.7h6l8,12.3v-12.3h6V490.8z"/>
		<path class="st1" d="M264.6,469.1v4.8h-5.8v16.9h-6v-16.9H247v-4.8H264.6z"/>
		<path class="st1" d="M272.4,489.6c-1.7-1-3.1-2.3-4-4c-1-1.7-1.5-3.6-1.5-5.7s0.5-4.1,1.5-5.7c1-1.7,2.3-3,4-4
			c1.7-0.9,3.6-1.4,5.6-1.4c2.1,0,3.9,0.5,5.6,1.4s3,2.3,4,4s1.5,3.6,1.5,5.7s-0.5,4-1.5,5.7s-2.3,3-4,4S280,491,278,491
			S274.1,490.5,272.4,489.6z M281.7,483.9c0.9-1,1.3-2.4,1.3-4c0-1.7-0.4-3.1-1.3-4.1s-2.1-1.5-3.6-1.5c-1.6,0-2.8,0.5-3.7,1.5
			c-0.9,1-1.3,2.4-1.3,4.1s0.4,3.1,1.3,4c0.9,1,2.1,1.5,3.7,1.5C279.6,485.4,280.8,484.9,281.7,483.9z"/>
		<path class="st1" d="M302,486c2-1.7,3.5-3.1,4.7-4.2c1.1-1.1,2.1-2.2,2.8-3.4c0.8-1.2,1.1-2.4,1.1-3.6s-0.3-2.2-0.9-2.9
			c-0.6-0.7-1.5-1-2.8-1c-1.2,0-2.2,0.4-2.8,1.2c-0.7,0.8-1,1.8-1.1,3.1h-3.4c0.1-2.3,0.8-4.1,2.1-5.4c1.3-1.2,3.1-1.9,5.1-1.9
			c2.2,0,4,0.6,5.3,1.8c1.3,1.2,1.9,2.9,1.9,4.9c0,1.5-0.4,2.9-1.1,4.3s-1.6,2.6-2.7,3.7c-1,1.1-2.4,2.3-4,3.7l-1.4,1.2h9.8v2.9h-15
			v-2.6L302,486z"/>
		<path class="st1" d="M320.4,470.9c1.2-2,3.3-3,6.2-3c2.9,0,5,1,6.2,3s1.8,4.8,1.8,8.3c0,3.6-0.6,6.4-1.8,8.4c-1.2,2-3.3,3-6.2,3
			c-2.9,0-5-1-6.2-3s-1.8-4.8-1.8-8.4C318.6,475.7,319.2,472.9,320.4,470.9z M330.8,475c-0.2-1.1-0.7-2.1-1.3-2.8
			c-0.7-0.7-1.6-1.1-2.9-1.1s-2.3,0.4-2.9,1.1c-0.7,0.7-1.1,1.7-1.3,2.8c-0.2,1.2-0.3,2.6-0.3,4.2c0,1.7,0.1,3.2,0.3,4.3
			c0.2,1.2,0.6,2.1,1.3,2.8c0.7,0.7,1.6,1.1,2.9,1.1s2.3-0.4,2.9-1.1c0.7-0.7,1.1-1.7,1.3-2.8c0.2-1.2,0.3-2.6,0.3-4.3
			C331.1,477.6,331,476.2,330.8,475z"/>
		<path class="st1" d="M341,486c2-1.7,3.5-3.1,4.7-4.2c1.1-1.1,2.1-2.2,2.8-3.4c0.8-1.2,1.1-2.4,1.1-3.6s-0.3-2.2-0.9-2.9
			c-0.6-0.7-1.5-1-2.8-1c-1.2,0-2.2,0.4-2.8,1.2c-0.7,0.8-1,1.8-1.1,3.1h-3.4c0.1-2.3,0.8-4.1,2.1-5.4c1.3-1.2,3.1-1.9,5.1-1.9
			c2.2,0,4,0.6,5.3,1.8c1.3,1.2,1.9,2.9,1.9,4.9c0,1.5-0.4,2.9-1.1,4.3c-0.8,1.4-1.6,2.6-2.7,3.7c-1,1.1-2.4,2.3-4,3.7l-1.4,1.2h9.8
			v2.9h-15v-2.6L341,486z"/>
		<path class="st1" d="M357.2,486.1v-2.6l10.3-14.8h4.3v14.4h2.9v3h-2.9v4.7h-3.5v-4.7H357.2z M368.5,472.2l-7.3,10.9h7.3V472.2z"/>
		<path class="st1" d="M391.8,478.2v3h-12.7v-3H391.8z"/>
		<path class="st1" d="M399,486c2-1.7,3.5-3.1,4.7-4.2c1.1-1.1,2.1-2.2,2.8-3.4c0.8-1.2,1.1-2.4,1.1-3.6s-0.3-2.2-0.9-2.9
			c-0.6-0.7-1.5-1-2.8-1c-1.2,0-2.2,0.4-2.8,1.2c-0.7,0.8-1,1.8-1.1,3.1h-3.4c0.1-2.3,0.8-4.1,2.1-5.4c1.3-1.2,3.1-1.9,5.1-1.9
			c2.2,0,4,0.6,5.3,1.8c1.3,1.2,1.9,2.9,1.9,4.9c0,1.5-0.4,2.9-1.1,4.3c-0.8,1.4-1.6,2.6-2.7,3.7c-1,1.1-2.4,2.3-4,3.7l-1.4,1.2h9.8
			v2.9h-15v-2.6L399,486z"/>
		<path class="st1" d="M417.4,470.9c1.2-2,3.3-3,6.2-3c2.9,0,5,1,6.2,3s1.8,4.8,1.8,8.3c0,3.6-0.6,6.4-1.8,8.4c-1.2,2-3.3,3-6.2,3
			c-2.9,0-5-1-6.2-3s-1.8-4.8-1.8-8.4C415.6,475.7,416.2,472.9,417.4,470.9z M427.9,475c-0.2-1.1-0.7-2.1-1.3-2.8
			c-0.7-0.7-1.6-1.1-2.9-1.1s-2.3,0.4-2.9,1.1c-0.7,0.7-1.1,1.7-1.3,2.8c-0.2,1.2-0.3,2.6-0.3,4.2c0,1.7,0.1,3.2,0.3,4.3
			c0.2,1.2,0.6,2.1,1.3,2.8c0.7,0.7,1.6,1.1,2.9,1.1s2.3-0.4,2.9-1.1c0.7-0.7,1.1-1.7,1.3-2.8c0.2-1.2,0.3-2.6,0.3-4.3
			C428.2,477.6,428.1,476.2,427.9,475z"/>
		<path class="st1" d="M438.1,486c2-1.7,3.5-3.1,4.7-4.2c1.1-1.1,2.1-2.2,2.8-3.4c0.8-1.2,1.1-2.4,1.1-3.6s-0.3-2.2-0.9-2.9
			c-0.6-0.7-1.5-1-2.8-1c-1.2,0-2.2,0.4-2.8,1.2s-1,1.8-1.1,3.1h-3.4c0.1-2.3,0.8-4.1,2.1-5.4c1.3-1.2,3.1-1.9,5.1-1.9
			c2.2,0,4,0.6,5.3,1.8c1.3,1.2,1.9,2.9,1.9,4.9c0,1.5-0.4,2.9-1.1,4.3c-0.8,1.4-1.6,2.6-2.7,3.7c-1,1.1-2.4,2.3-4,3.7l-1.4,1.2h9.8
			v2.9h-15v-2.6L438.1,486z"/>
		<path class="st1" d="M468.9,471l-8.6,19.7h-3.5l8.7-19.4h-11.4v-3h14.8V471z"/>
	</g>
</g>
</svg>
